<svg version="1.2" xmlns="http://www.w3.org/2000/svg" viewBox="0 0 4490 1210" width="260" height="70">
	<title>New Project(1)-svg-svg</title>
	<style>
		.s0 { fill: #3cffd2;stroke: #000000;stroke-miterlimit:0;stroke-width: .4 } 
		.s1 { fill: #000000;stroke: #3cffd2;stroke-miterlimit:0;stroke-width: .4 } 
		.s2 { fill: #10e8ff;stroke: #000000;stroke-miterlimit:0;stroke-width: .4 } 
		.s3 { fill: #000000 } 
		.s4 { fill: #1d868f } 
		.s5 { fill: #60ffad } 
	</style>
	<g id="Layer 1">
		<path id="Shape 1" fill-rule="evenodd" class="s0" d="m2413.6 627.3c-732.9 676.6-471.4-1149.9-61.6-346.5 162.7 319.1-304.6-304.6 272.3 220.9"/>
		<path id="Shape 2" fill-rule="evenodd" class="s1" d="m1999.8 518.3c-324.3-342.4-122.4 688.4 588.5 50.3 293.2-263.2-789.7 369.4-462.8-265.3 398-772.8 736.6 733.9-108.3 235.6"/>
		<path id="Shape 3" fill-rule="evenodd" class="s2" d="m2386 632.2c-105.2-62.8 7.3 433.3-388.7-121.9"/>
		<path id="TEXT\" fill-rule="evenodd" class="s3" d="m2140.8 279.5v1.3l-0.4-0.1v-0.3q-0.1 0.2-0.3 0.3-0.2 0.1-0.4 0.1-0.4 0-0.6-0.2-0.2-0.2-0.2-0.5 0-0.4 0.3-0.6 0.2-0.2 0.7-0.2h0.5q0-0.2-0.1-0.4-0.2-0.1-0.5-0.1-0.2 0-0.4 0-0.1 0.1-0.3 0.2v-0.4q0.2-0.1 0.4-0.1 0.2 0 0.3 0 0.5 0 0.8 0.2 0.2 0.3 0.2 0.8zm-0.4 0.1h-0.3q-0.5 0-0.6 0.1-0.2 0.1-0.2 0.4 0 0.2 0.1 0.3 0.1 0.1 0.4 0.1 0.3 0 0.5-0.2 0.1-0.2 0.1-0.6zm2.6-1v0.3q-0.2-0.1-0.3-0.1-0.2 0-0.4 0-0.3 0-0.4 0-0.1 0.1-0.1 0.3 0 0.1 0.1 0.2 0.1 0.1 0.4 0.1l0.1 0.1q0.4 0 0.5 0.2 0.2 0.1 0.2 0.4 0 0.3-0.3 0.5-0.2 0.2-0.6 0.2-0.2 0-0.4 0-0.2-0.1-0.4-0.2v-0.3q0.2 0.1 0.4 0.1 0.2 0.1 0.4 0.1 0.2 0 0.4-0.1 0.1-0.1 0.1-0.3 0-0.1-0.1-0.2-0.1-0.1-0.4-0.1l-0.1-0.1q-0.4 0-0.5-0.2-0.2-0.1-0.2-0.4 0-0.3 0.2-0.5 0.3-0.1 0.7-0.1 0.2 0 0.3 0 0.2 0 0.4 0.1z"/>
		<path id="Wellspring  Corp " fill-rule="evenodd" class="s3" d="m512.3 902.1q0 2-0.7 3.6l-98.7 218.5-99.6-202.5-102.3 201.3-95.8-219.5q-0.7-2.1-0.7-4.1 0.1-9 9.1-9 6.1 0.1 8.4 5.5l80.3 183.2 101.2-199.3 98.7 200.5 82.4-182.4q2.4-5.3 8.7-5.3 9.1 0.1 9 9.5zm34.1 189.7l258.5 1.5q9.3 0 9.3 9.4-0.1 9.4-9.4 9.3l-277.3-1.6 1.3-219.6 277.2 1.6q9.4 0 9.3 9.4 0 9.4-9.4 9.3l-258.5-1.5-0.4 81.7 258.4 1.5q9.4 0.1 9.4 9.4-0.1 9.4-9.5 9.4l-258.5-1.5zm583.1 14.7q0 9-9.4 9l-277.3-1.6 1.2-209.9q0.1-9.4 9.5-9.4 9.4 0.1 9.3 9.5l-1.1 191.5 258.5 1.5q9.4 0 9.3 9.4zm312.7 1.8q0 9-9.4 9l-277.2-1.6 1.2-209.9q0-9.4 9.4-9.4 9.4 0.1 9.3 9.5l-1.1 191.5 258.5 1.5q9.4 0 9.3 9.4zm2082.5-142.1q-2.7 2.3-6.4 2.3-4 0-6.6-3-18.3-20.9-47.4-32.8-28.7-12.2-61.9-12.4-53.9-0.3-92.2 27.9-38.3 28.3-38.6 68.1-0.2 39.9 37.8 68.5 38 28.7 91.9 29 33.2 0.2 62-11.3 29.2-11.9 47.8-32.6 2.7-3 6.7-2.9 3.7 0 6.3 2.3 6.7 5.8 0.6 13.1-20.5 23.7-53.4 36.9-32.9 13.2-70.1 13-61.3-0.4-104.3-33.5-44.3-34-44-82.6 0.3-48.5 45-82.1 43.4-32.6 104.6-32.2 37.2 0.2 69.9 13.8 32.8 13.6 53.1 37.5 5.9 7.4-0.8 13zm282.1-27.2q44.3 34.4 44.1 82.7-0.3 48.2-45 82.1-43.1 32.5-104.4 32.2-61.2-0.4-104.2-33.4-44.4-34.1-44.1-82.6 0.3-48.6 45-82.2 43.7-32.9 104.7-32.5 60.6 0.3 103.9 33.7zm-12.1 14q-38-28.6-91.9-29-54-0.3-92.3 28-38.3 27.9-38.6 68.1-0.2 39.8 37.8 68.5 38 28.3 91.9 28.6 53.9 0.3 92.3-27.6 38.3-28.2 38.5-68 0.3-40.2-37.7-68.6zm363.3 168.9q0 2.6-1.7 5-2.7 4.3-7.7 4.3-2.7 0-5-1.7l-97.8-65.9-155.3-0.9-0.4 57.6q0 9.4-9.4 9.3-9.4 0-9.3-9.4l1.2-210.3 210.3 1.3q31.8 0.1 53.7 22.7 22.4 22.2 22.2 54-0.2 31.5-22.8 53.8-22.2 22.3-54 22.1h-2.7l74.7 50.3q4 2.7 4 7.8zm-75.9-76.8q23.8 0.1 40.6-16.5 17.2-17 17.3-40.8 0.1-23.7-16.8-40.6-16.7-17.2-40.4-17.3l-191.6-1.1-0.6 115.2zm369-109.4q22.3 22.2 22.1 54-0.2 31.5-22.8 53.8-22.2 22.3-54 22.1l-191.5-1.1-0.3 57.6q-0.1 9.4-9.5 9.4-9.3-0.1-9.3-9.5l1.2-210.2 210.3 1.2q31.8 0.1 53.8 22.7zm-14 94.7q17.2-17 17.3-40.8 0.2-23.7-16.8-40.6-16.7-17.2-40.4-17.3l-191.5-1.1-0.7 115.2 191.5 1.1q23.8 0.1 40.6-16.5z"/>
		<path id="Wellspring  Corp " fill-rule="evenodd" class="s4" d="m1476.6 1030.1q9.3 0.1 9.3 9.5-0.2 25.8 36.6 44.7 37 19 87.6 19.3 54.9 0.3 89.8-10.9 34.9-11.2 35-29.3 0.1-19.4-27.3-28.9-20.1-7.2-81.3-15.9l-17.1-2.4-15.7-2.5q-66.2-10.4-85.6-17.2-40.4-14.6-40.2-46.4 0.1-30.5 45.8-46 37.9-12.8 97.8-12.5 60.3 0.4 101.6 24.4 41.4 23.7 41.2 58.1 0 9.4-9.4 9.4-9.4-0.1-9.3-9.5 0.1-25.7-36.9-44.7-36.7-19-87.3-19.3-54.9-0.3-89.8 10.9-34.9 11.2-35 29.3-0.1 19.1 29.3 29.3 19.7 6.8 80.3 15.8l33.1 4.9q63.9 9.1 85.9 17.2 38.8 14.3 38.6 46.1-0.2 30.5-45.8 46-37.9 12.8-97.8 12.5-60.3-0.4-101.7-24-41.4-24-41.2-58.5 0.1-9.4 9.5-9.4zm569.1-108.2q22.3 22.2 22.2 54-0.2 31.5-22.8 53.8-22.2 22.3-54 22.1l-191.5-1.1-0.4 57.6q0 9.4-9.4 9.4-9.4-0.1-9.3-9.5l1.2-210.2 210.3 1.2q31.8 0.1 53.7 22.7zm-13.9 94.7q17.2-17 17.3-40.8 0.2-23.7-16.8-40.6-16.7-17.1-40.4-17.3l-191.6-1.1-0.6 115.2 191.5 1.1q23.8 0.1 40.6-16.5zm349.7 95.1q0 2.7-1.7 5-2.7 4.3-7.7 4.3-2.7 0-5.1-1.7l-97.7-65.9-155.3-0.8-0.4 57.5q0 9.4-9.4 9.4-9.4-0.1-9.3-9.5l1.2-210.2 210.3 1.2q31.8 0.2 53.7 22.7 22.3 22.2 22.2 54-0.2 31.5-22.8 53.8-22.2 22.3-54 22.2l-2.7-0.1 74.7 50.4q4 2.7 4 7.7zm-75.9-76.8q23.8 0.1 40.6-16.5 17.2-17 17.3-40.8 0.2-23.7-16.8-40.6-16.7-17.1-40.4-17.3l-191.6-1.1-0.6 115.2zm115.6-131.3q9.4 0.1 9.3 9.5l-1.1 200.9q-0.1 9-9.4 8.9-9.1 0-9-9l1.1-200.9q0.1-9.4 9.1-9.4zm322.4 11.3l-1.3 219.3-266.7-202.5-1 182.5q-0.1 9.1-9.4 9-9.4-0.1-9.4-9.1l1.3-219.6 266.7 202.4 1-182.2q0.1-9.3 9.5-9.3 9.3 0.1 9.3 9.5zm298.2 202.6q-0.1 9-9.1 9-9.4-0.1-9.3-9.1l0.1-21.1q-44.1 35.5-108 35.2-61.3-0.4-104.3-33.4-44.4-34.1-44.1-82.7 0.3-48.5 45-82.1 43.7-32.9 104.7-32.5 37.2 0.2 69.6 14.1 32.4 13.6 53.3 37.5 2.3 2.7 2.3 6 0 9.4-9.4 9.4-4.4-0.1-7-3.4-18-20.9-47-32.8-28.8-11.9-61.9-12.1-53.9-0.3-92.3 28-38.3 27.9-38.5 68.1-0.3 39.8 37.8 68.5 38 28.3 91.9 28.6 32.4 0.2 61-10.7 28.5-11.2 47-31.2l0.1-11.4-107.8-0.6q-9.4 0-9.3-9.1 0-9.3 9.4-9.3l126.2 0.7z"/>
		<path id="Wellspring  Corp " class="s5" d=""/>
	</g>
</svg>