<svg version="1.2" xmlns="http://www.w3.org/2000/svg" viewBox="0 0 75000 30000" width="250" height="100">
	<title>New Project</title>
	<style>
		.s0 { fill: #3cffd2;stroke: #000000;stroke-miterlimit:0 } 
		.s1 { fill: #000000;stroke: #3cffd2;stroke-miterlimit:0 } 
		.s2 { fill: #10e8ff;stroke: #000000;stroke-miterlimit:0 } 
		.s3 { fill: #000000 } 
		.s4 { fill: #00c6ff } 
		.s5 { fill: #60ffad } 
	</style>
	<g id="Layer 1">
		<path id="Shape 1" fill-rule="evenodd" class="s0" d="m39368.8 15092c-11725.6 10826.3-7541.6-18397.6-984.9-5543.3 2604 5105.2-4872.8-4873 4356.7 3535.2"/>
		<path id="Shape 2" fill-rule="evenodd" class="s1" d="m32748.4 13349.2c-5188.7-5478.4-1958.4 11013.6 9415.9 804.5 4691.8-4211.2-12634.7 5910.2-7404.3-4245.1 6368.3-12364.3 11785.2 11742.6-1732.1 3769.6"/>
		<path id="Shape 3" fill-rule="evenodd" class="s2" d="m38928 15171.2c-1683.7-1004.9 117.4 6932.7-6219.4-1951"/>
		<path id="TEXT\" class="s3" aria-label="as"  d="m34999.1 9530.1h-5.8q-7.1 0-9.8 1.6-2.8 1.7-2.8 5.6 0 3.1 2.1 4.9 2 1.8 5.6 1.8 4.8 0 7.7-3.4 3-3.5 3-9.2zm5.8-2.4v20.3h-5.8v-5.4q-2 3.2-5 4.8-3 1.5-7.3 1.5-5.5 0-8.7-3-3.2-3.1-3.2-8.2 0-6 4-9.1 4-3 12-3h8.2v-0.6q0-4-2.7-6.2-2.6-2.3-7.4-2.3-3.1 0-5.9 0.8-2.9 0.7-5.6 2.2v-5.4q3.2-1.3 6.2-1.9 3-0.6 5.9-0.6 7.7 0 11.5 4 3.8 4 3.8 12.1zm34.7-14.2v5.5q-2.5-1.2-5.1-1.9-2.7-0.6-5.5-0.6-4.4 0-6.6 1.3-2.1 1.4-2.1 4 0 2 1.5 3.2 1.6 1.2 6.3 2.2l2 0.5q6.2 1.3 8.8 3.7 2.6 2.4 2.6 6.8 0 4.9-3.9 7.8-3.9 2.9-10.8 2.9-2.8 0-5.9-0.5-3.1-0.6-6.5-1.7v-6q3.2 1.7 6.3 2.5 3.2 0.8 6.3 0.8 4.1 0 6.3-1.4 2.2-1.4 2.2-4 0-2.3-1.6-3.6-1.6-1.3-7-2.5l-2-0.4q-5.5-1.2-7.9-3.5-2.4-2.4-2.4-6.5 0-5 3.6-7.8 3.5-2.7 10.1-2.7 3.2 0 6 0.5 2.9 0.4 5.3 1.4z"/>
		<path id="Wellspring  Corp " class="s3" aria-label="Wellspring  Corp
"  d="m8805.1 19338.1q-101.7-0.6-139.7 84.9l-1318.6 2917.6-1578.1-3207.4-1620.1 3189-1285.1-2932.5q-37-85.9-133.4-86.5-144.6-0.8-145.5 143.9-0.1 32.1 10.4 64.3l1533.5 3512.5 1636.4-3221.1 1593.9 3239.7 1579.1-3494.7q10.8-26.7 11-58.9 0.9-150-143.8-150.8zm696.4 1879.1l4135.8 23.7q150 0.9 150.8-149.1 0.9-150-149.1-150.9l-4135.7-23.7 7.5-1307.2 4135.7 23.8q150 0.8 150.9-149.2 0.8-150-149.2-150.8l-4435.7-25.5-20.2 3514.3 4435.8 25.5q150 0.8 150.8-149.2 0.9-150-149.1-150.8l-4135.8-23.8zm9174.6 1392l-4135.8-23.7 17.6-3064.3q0.9-150-149.1-150.9-150-0.8-150.9 149.2l-19.3 3358.9 4435.8 25.5q150 0.8 150.8-143.8 0.9-150-149.1-150.9zm5003.6 28.7l-4135.8-23.7 17.6-3064.3q0.9-150-149.1-150.9-150-0.8-150.9 149.2l-19.3 3358.9 4435.8 25.5q150 0.8 150.8-143.8 0.9-150-149.1-150.9zm33480.7-2331.2q-324.6-382.2-848.3-599.5-523.8-217.3-1118.5-220.7-980.3-5.7-1674.4 515.4-715.6 537-720.1 1313.8-4.4 776.7 705 1321.9 688 529 1668.4 534.6 594.6 3.4 1120.9-207.9 526.2-211.2 855.2-589.7 97.1-117.3-9.5-209-42.7-37.8-101.6-38.1-64.3-0.4-107.4 47.6-296.6 330.5-763.8 520.6-461.8 184.9-992.1 181.9-862.5-5-1470.6-463.9-608.1-458.8-604.5-1096.3 3.7-637.5 617-1089.4 613.3-451.8 1475.8-446.9 530.4 3.1 990 198.6 465 190.1 757.8 524 42.5 48.4 106.8 48.8 59 0.3 102-36.9 107.7-90.5 11.9-208.9zm2838.5-765.9q-975-5.6-1674.5 520.8-715.6 537-720.1 1313.8-4.4 776.8 705 1321.9 688 529 1668.4 534.6 980.4 5.6 1669.1-515.4 715.6-542.4 720.1-1313.8 4.4-771.4-705-1322-693.4-534.3-1663-539.9zm2073.3 1860.2q-3.6 637.5-617 1089.4-613.3 446.5-1475.8 441.5-862.5-4.9-1470.6-458.4-608.1-458.9-604.5-1096.4 3.7-642.9 617-1089.4 613.3-451.8 1475.9-446.9 862.5 5 1470.6 463.8 608.1 453.5 604.4 1096.4zm5145.3 1481.4l-1195.4-805.1 42.8 0.2q508.9 2.9 864.6-354 361-356.8 363.9-860.4 2.9-508.9-354-864.6-351.5-360.9-860.5-363.9l-3364.3-19.3-19.3 3364.3q-0.8 150 149.2 150.9 150 0.9 150.8-149.1l5.3-921.5 2485.7 14.3 1563.7 1053.6q37.3 27.1 80.2 27.3 80.4 0.5 123.6-68.9 27-37.4 27.3-80.2 0.4-80.4-63.6-123.6zm-4215.2-1122.5l10.6-1842.8 3064.3 17.5q380.4 2.2 646.7 277 271.6 269.4 269.5 649.8-2.2 380.3-277 652-269.4 266.3-649.8 264.1zm8107-2096.4l-3364.3-19.3-19.3 3364.3q-0.8 150 149.2 150.9 150 0.8 150.8-149.2l5.3-921.4 3064.3 17.6q508.9 2.9 864.6-354 361-356.9 363.9-860.5 2.9-508.9-354-864.5-351.5-361-860.5-363.9zm-12.3 2142.9l-3064.3-17.6 10.6-1842.9 3064.3 17.6q380.4 2.2 646.7 276.9 271.6 269.4 269.5 649.8-2.2 380.4-277 652-269.4 266.3-649.8 264.2z"/>
		<path id="Wellspring  Corp " class="s4" aria-label="Wellspring  Corp
"  d="m24226.2 21687.4q-3.2 551.8 659 936 662.1 378.8 1626.4 384.3 958.9 5.5 1565.5-200 730-247.6 732.8-735.1 2.9-508.9-617.2-737.5-352.9-130.6-1375.3-275.7l-529.9-78.1q-968.9-144.8-1284.3-253.8-470.5-163.4-468.8-468.8 1.7-289.2 559.9-468.2 558.2-178.9 1436.7-173.9 809 4.6 1396.5 308 593 303.4 590.6 715.9-0.9 150 149.1 150.9 150 0.9 150.9-149.1 3.2-551.8-659-930.6-662.1-384.2-1626.4-389.7-958.9-5.5-1565.5 199.9-730 247.6-732.8 735.1-2.9 509 644 743 310.1 109 1369.9 275.8l251.6 38.9 273 39.1q979.6 139.5 1300.3 253.9 438.5 152.5 436.7 463.2-1.7 289.3-559.9 468.3-558.1 178.9-1436.7 173.9-809-4.7-1401.9-308.1-587.6-303.4-585.2-715.9 0.9-150-149.1-150.8-150-0.9-150.9 149.1zm8397.2-2244.8l-3364.4-19.3-19.3 3364.3q-0.8 150 149.2 150.9 150 0.9 150.8-149.1l5.3-921.5 3064.3 17.6q509 2.9 864.6-354 361-356.9 363.9-860.4 2.9-509-354-864.6-351.5-361-860.4-363.9zm-12.3 2142.9l-3064.4-17.6 10.6-1842.9 3064.3 17.6q380.4 2.2 646.7 277 271.7 269.4 269.5 649.8-2.2 380.3-277 652-269.4 266.3-649.7 264.1zm6181.2 1133.7l-1195.4-805.1 42.8 0.3q509 2.9 864.6-354 361-356.9 363.9-860.5 2.9-508.9-354-864.5-351.5-361-860.5-363.9l-3364.3-19.3-19.3 3364.3q-0.8 150 149.2 150.9 150 0.8 150.8-149.2l5.3-921.4 2485.7 14.2 1563.7 1053.7q37.4 27 80.2 27.2 80.4 0.5 123.6-68.9 27-37.3 27.3-80.2 0.4-80.4-63.6-123.6zm-4215.2-1122.4l10.6-1842.9 3064.3 17.6q380.4 2.2 646.7 276.9 271.7 269.5 269.5 649.8-2.2 380.4-277 652-269.4 266.3-649.8 264.2zm4768.5-1933.5l-18.5 3214.3q-0.8 144.7 143.8 145.5 150 0.9 150.9-143.8l18.4-3214.3q0.9-150-149.1-150.8-144.7-0.9-145.5 149.1zm5154.4-120.4q-150-0.9-150.8 149.1l-16.7 2914.3-4267.3-3238.9-20.2 3514.4q-0.8 144.6 149.2 145.5 150 0.8 150.8-143.8l16.7-2919.7 4267.3 3238.9 20.2-3508.9q0.8-150-149.2-150.9zm4927.1 2171.2l-2019.7-11.6q-150-0.8-150.9 149.2-0.8 144.6 149.2 145.5l1725 9.9-1 182.1q-296.5 319.7-752.9 499.3-456.4 174.2-976 171.2-862.5-5-1470.7-458.5-608.1-458.8-604.4-1096.4 3.7-642.8 617-1089.3 613.3-451.9 1475.8-446.9 530.4 3 990 193.2 465 190.1 752.4 523.9 42.5 53.9 112.2 54.3 150 0.8 150.8-149.2 0.3-53.5-36.9-96.6-335.3-382.3-853.7-599.6-518.4-222.6-1113.1-226-975-5.6-1674.5 520.7-715.6 537-720 1313.8-4.5 776.8 704.9 1322 688.1 529 1668.4 534.6 1023.3 5.8 1728.3-563.3l-1.9 337.5q-0.8 144.6 149.2 145.5 144.6 0.8 145.5-143.9z"/>
		<path id="Wellspring  Corp " class="s5" aria-label="Wellspring  Corp
"  d=""/>
	</g>
</svg>