<svg version="1.2" xmlns="http://www.w3.org/2000/svg" viewBox="0 0 250 100" width="250" height="100">
	<title>New Project</title>
	<style>
		.s0 { fill: #000000 } 
		.s1 { fill: #00a6ff } 
		.s2 { fill: #399acd;stroke: #000000;stroke-miterlimit:0 } 
	</style>
	<g id="Layer 1">
		<path id="Wellspring Corp" class="s0" aria-label="Wellspring Corp"  d="m38.3 61.7q-0.3 0-0.4 0.3l-4.1 9.3-5.1-10.2-5.1 10.2-4.1-9.3q-0.1-0.3-0.4-0.3-0.5 0-0.5 0.5 0 0.1 0 0.2l5 11.1 5.1-10.2 5.1 10.2 5-11.1q0-0.1 0-0.2 0-0.5-0.5-0.5zm2.3 6h13.1q0.5 0 0.5-0.5 0-0.5-0.5-0.5h-13.1v-4.1h13.1q0.5 0 0.5-0.5 0-0.5-0.5-0.5h-14.1v11.2h14.1q0.5 0 0.5-0.5 0-0.5-0.5-0.5h-13.1zm29.1 4.3h-13.1v-9.8q0-0.4-0.5-0.4-0.5 0-0.5 0.4v10.7h14.1q0.5 0 0.5-0.5 0-0.4-0.5-0.4zm15.9 0h-13.1v-9.8q0-0.4-0.5-0.4-0.5 0-0.5 0.4v10.7h14.1q0.5 0 0.5-0.5 0-0.4-0.5-0.4zm101.6-8q-1.1-1.2-2.7-1.9-1.7-0.7-3.6-0.7-3.1 0-5.3 1.7-2.3 1.7-2.3 4.1 0 2.5 2.3 4.2 2.2 1.7 5.3 1.7 1.9 0 3.6-0.7 1.6-0.7 2.7-1.9 0.3-0.3-0.1-0.6-0.1-0.2-0.3-0.2-0.2 0-0.3 0.2-1 1.1-2.4 1.7-1.5 0.6-3.2 0.6-2.7 0-4.7-1.5-1.9-1.4-1.9-3.5 0-2 1.9-3.4 2-1.5 4.7-1.5 1.7 0 3.2 0.6 1.4 0.6 2.4 1.7 0.1 0.1 0.3 0.1 0.2 0 0.3-0.1 0.4-0.3 0.1-0.6zm9-2.5q-3.1 0-5.3 1.7-2.3 1.7-2.3 4.1 0 2.5 2.3 4.2 2.1 1.7 5.3 1.7 3.1 0 5.2-1.7 2.3-1.7 2.3-4.2 0-2.4-2.3-4.1-2.2-1.7-5.2-1.7zm6.6 5.8q0 2.1-2 3.5-1.9 1.4-4.6 1.4-2.8 0-4.7-1.4-2-1.4-2-3.5 0-2 2-3.4 1.9-1.5 4.7-1.5 2.7 0 4.6 1.5 2 1.4 2 3.4zm16.3 4.7l-3.8-2.6h0.1q1.7 0 2.8-1.1 1.1-1.2 1.1-2.8 0-1.6-1.1-2.7-1.1-1.1-2.8-1.1h-10.6v10.6q0 0.5 0.4 0.5 0.5 0 0.5-0.5v-2.9h7.9l5 3.3q0.1 0.1 0.2 0.1 0.3 0 0.4-0.2 0.1-0.1 0.1-0.3 0-0.2-0.2-0.3zm-13.4-3.5v-5.9h9.7q1.3 0 2.1 0.9 0.9 0.8 0.9 2 0 1.3-0.9 2.1-0.8 0.9-2.1 0.9zm25.7-6.8h-10.6v10.6q0 0.5 0.4 0.5 0.5 0 0.5-0.5v-2.9h9.7q1.7 0 2.8-1.1 1.1-1.2 1.1-2.8 0-1.6-1.1-2.7-1.1-1.1-2.8-1.1zm0 6.8h-9.7v-5.9h9.7q1.2 0 2.1 0.9 0.9 0.8 0.9 2 0 1.3-0.9 2.1-0.9 0.9-2.1 0.9z"/>
		<path id="Wellspring Corp" class="s1" aria-label="Wellspring Corp"  d="m87.3 68.9q0 1.8 2.1 3 2.1 1.1 5.2 1.1 3 0 5-0.6 2.3-0.8 2.3-2.4 0-1.6-2-2.3-1.1-0.4-4.4-0.8l-1.7-0.3q-3-0.4-4-0.8-1.5-0.5-1.5-1.4 0-1 1.7-1.5 1.8-0.6 4.6-0.6 2.6 0 4.4 0.9 1.9 1 1.9 2.3 0 0.5 0.5 0.5 0.5 0 0.5-0.5 0-1.8-2.1-2.9-2.1-1.2-5.2-1.2-3 0-5 0.6-2.3 0.8-2.3 2.4 0 1.6 2.1 2.3 1 0.3 4.3 0.9l0.8 0.1 0.9 0.1q3.1 0.4 4.1 0.8 1.4 0.5 1.4 1.4 0 1-1.7 1.5-1.8 0.6-4.6 0.6-2.6 0-4.5-0.9-1.8-1-1.8-2.3 0-0.5-0.5-0.5-0.5 0-0.5 0.5zm26.6-7.3h-10.7v10.7q0 0.5 0.5 0.5 0.5 0 0.5-0.5v-2.9h9.7q1.6 0 2.8-1.2 1.1-1.1 1.1-2.7 0-1.6-1.1-2.7-1.2-1.2-2.8-1.2zm0 6.8h-9.7v-5.8h9.7q1.2 0 2.1 0.8 0.8 0.9 0.8 2.1 0 1.2-0.8 2.1-0.9 0.8-2.1 0.8zm19.7 3.5l-3.8-2.5h0.1q1.6 0 2.7-1.2 1.2-1.1 1.2-2.7 0-1.6-1.2-2.7-1.1-1.2-2.7-1.2h-10.7v10.7q0 0.5 0.5 0.5 0.5 0 0.5-0.5v-2.9h7.9l4.9 3.3q0.2 0.1 0.3 0.1 0.2 0 0.4-0.2 0.1-0.2 0.1-0.3 0-0.3-0.2-0.4zm-13.4-3.5v-5.8h9.7q1.2 0 2 0.8 0.9 0.9 0.9 2.1 0 1.2-0.9 2.1-0.8 0.8-2 0.8zm15.1-6.2v10.2q0 0.5 0.4 0.5 0.5 0 0.5-0.5v-10.2q0-0.5-0.5-0.5-0.4 0-0.4 0.5zm16.3-0.5q-0.4 0-0.4 0.5v9.2l-13.6-10.2v11.2q0 0.5 0.4 0.5 0.5 0 0.5-0.5v-9.3l13.6 10.2v-11.1q0-0.5-0.5-0.5zm15.7 6.8h-6.4q-0.5 0-0.5 0.5 0 0.5 0.5 0.5h5.5v0.5q-1 1.1-2.4 1.6-1.4 0.6-3.1 0.6-2.7 0-4.7-1.4-1.9-1.5-1.9-3.5 0-2 1.9-3.5 2-1.4 4.7-1.4 1.7 0 3.1 0.6 1.5 0.6 2.4 1.6 0.2 0.2 0.4 0.2 0.5 0 0.5-0.5 0-0.1-0.1-0.3-1.1-1.2-2.8-1.9-1.6-0.7-3.5-0.7-3.1 0-5.3 1.7-2.3 1.7-2.3 4.2 0 2.5 2.3 4.2 2.2 1.7 5.3 1.7 3.3 0 5.5-1.9v1.1q0 0.5 0.5 0.5 0.4 0 0.4-0.5z"/>
		<path id="Shape 1" fill-rule="evenodd" class="s2" d="m118.9 26.9"/>
		<path id="Shape 2" fill-rule="evenodd" class="s2" d="m130.9 43.6c-8.5 16.7-47.9-17.6 2.8-6.3 50.7 11.3-78.2 24.9 4.6 3.3"/>
	</g>
</svg>