<svg version="1.2" xmlns="http://www.w3.org/2000/svg" viewBox="0 0 960 384" width="250" height="100">
	<title>New Project-ai</title>
	<style>
		.s0 { fill: #16f8ce;stroke: #000000;stroke-miterlimit:0;stroke-width: 3.8 } 
		.s1 { fill: #000000 } 
	</style>
	<g id="Layer 1">
		<path id="Shape 1" class="s0" d="m623.8 280.7c-3.9 1.8-565 155.8-10.8 6.2 554.1-149.5-22.4 173.1 14.6 1.4 38.1-176.6 452.1-229-3.8-7.6z"/>
		<path id="Nature-Corp. " class="s1" aria-label="Nature-Corp. "  d="m159.6 220h-1.1q-1.4 0-2.5-1.6l-30.1-56.8v55.9q0 0.9-0.7 1.8-0.6 0.7-1.8 0.7h-1.3q-2.5 0-2.5-2.5v-68q0-2.7 2.5-2.7h1.3q1.8 0 1.8 1.1l30.8 56.9v-55.3q0-0.9 0.3-1.8 0.6-0.9 1.9-0.9h1.4q1.3 0 1.8 0.9 0.6 0.9 0.6 1.8v68q0 0.9-0.6 1.8-0.5 0.7-1.8 0.7zm47.9 0h-1.1q-1.3 0-2.4-2.4-4.9 2.4-8.1 2.4h-6.6q-6.1 0-9.6-4-3.4-4-3.4-10.9v-23.5q0-6.9 3.4-10.9 3.5-4 9.6-4h18.2q2.1 0 2.1 2.2v48.7q0 2.4-2.1 2.4zm-2.8-40.1v-2.3q0-0.7-0.3-2.2-0.4-1.3-1.3-2-0.9-0.7-2.9-1.1h-10.9q-7.9 0-7.9 9.3v23.4q0 9.4 7.9 9.4h6.4q8.9 0 8.9-8.9 0-12.3 0-17.9 0.1-5.7 0.1-7.7zm39.2 40.1h-3.1q-6 0-9.6-4-3.6-4-3.6-10.9v-33.1h-5.1q-1.8 0-1.8-2.2v-1.3q0-2.3 1.8-2.3h5.1v-7.1q0-0.9 0.5-1.6 0.6-0.9 1.5-0.9h1.2q1 0 1.3 0.9 0.6 0.7 0.6 1.6v7.1h10.3q2 0 2 2.3v1.3q0 1.3-0.7 1.8-0.6 0.4-1.3 0.4h-10.3v33.1q0 9.1 8.1 9.1h3.1q2 0 2 2.2v1.4q0 1.3-0.7 1.8-0.6 0.4-1.3 0.4zm44.2 0h-1.1q-1.2 0-2.3-2.4-2.4 1.3-4.4 1.9-1.8 0.5-4 0.5h-6.3q-6 0-9.6-4-3.6-4-3.6-10.9v-36.2q0-2.2 2-2.2h1.4q0.9 0 1.5 0.7 0.5 0.6 0.5 1.5v36.1q0 9.4 7.8 9.4h6.3q8.7 0 8.7-8.9v-36.6q0-2.2 2-2.2h1.1q0.9 0 1.5 0.7 0.5 0.6 0.5 1.5v48.7q0 2.4-2 2.4zm28.7-47.7h-3.3q-3.6 0-5.6 2.9-2 2.7-2 7.3v35.1q0 2.4-1.8 2.4h-1.1q-1.5 0-1.5-2.4v-48.7q0-2.2 1.5-2.2h1.1q0.7 0 1.1 0.4 0.3 0.3 1 2.1 2.4-1.2 3.9-1.8 1.6-0.7 3.6-0.7h3.1q0.7 0 1.2 0.7 0.6 0.6 0.6 1.5v1.3q0 2.1-1.8 2.1zm44.6 24.3h-27.1v8.4q0 9.4 8 9.4h18.3q2.2 0 2.2 2.2v1.2q0 1.1-0.7 1.7-0.7 0.5-1.5 0.5h-18.3q-6.1 0-9.6-4-3.4-4-3.4-10.9v-23.5q0-6.9 3.4-10.9 3.5-4 9.6-4h7.8q6.4 0 9.8 4 3.4 4 3.4 10.9v12.5q0 2.5-1.9 2.5zm-3.1-5.6v-9.4q0-9.3-8.2-9.3h-7.8q-8 0-8 9.3v9.4zm18.2 3.1v-5.5q1.1-0.9 2.1-0.9h24.5q1.3 0 1.8 0.8l0.4 0.3 0.2 0.2v5.1q0-0.2-0.6 0.3-0.9 0.6-1.8 0.6h-24.5q-1.2 0-1.9-0.6-0.2-0.1-0.2-0.3zm70.7 25.9h-12.9q-7.1 0-10.9-4.2-3.8-4.3-3.8-12.5v-39.9q0-7.6 3.8-12.1 4-4.5 10.9-4.5h12.9q6.8 0 10.7 4.5 3.9 4.5 3.9 12.1v4.9q0 1.3-0.5 2.2-0.5 0.9-1.8 0.9h-1.3q-2.3 0-2.3-3.1v-4.9q0-10.1-8.7-10.1h-12.9q-8.5 0-8.5 10.1v39.7q0 10.4 8.5 10.4h12.9q8.7 0 8.7-10.4v-4.9q0-2.7 2.3-2.7h1.3q1.1 0 1.6 0.9 0.7 0.9 0.7 1.8v5.1q0 8.2-3.8 12.5-3.8 4.2-10.8 4.2zm48.5 0h-7.6q-6.1 0-9.6-4-3.4-4-3.4-10.9v-23.5q0-6.9 3.4-10.9 3.5-4 9.6-4h7.6q6 0 9.6 4 3.7 4 3.7 10.9v23.5q0 6.9-3.7 10.9-3.6 4-9.6 4zm8-15v-23.4q0-9.3-8-9.3h-7.6q-8 0-8 9.3v23.4q0 9.4 8 9.4h7.6q8 0 8-9.4zm32.6-32.7h-3.2q-3.7 0-5.6 2.9-2 2.7-2 7.3v35.1q0 2.4-1.9 2.4h-1q-1.5 0-1.5-2.4v-48.7q0-2.2 1.5-2.2h1q0.8 0 1.1 0.4 0.4 0.3 1.1 2.1 2.4-1.2 3.8-1.8 1.7-0.7 3.7-0.7h3q0.8 0 1.3 0.7 0.5 0.6 0.5 1.5v1.3q0 2.1-1.8 2.1zm35 48.4h-6.5q-2 0-3.8-0.5-1.6-0.6-4.7-2.4v16q0 0.9-0.6 1.6-0.5 0.7-1.4 0.7h-1.3q-0.9 0-1.4-0.7-0.4-0.7-0.4-1.6v-64.9q0-0.9 0.4-1.5 0.5-0.7 1.4-0.7h1.3q0.5 0 0.9 0.6 0.5 0.3 1.4 1.8 4.6-2.4 8.2-2.4h6.5q6 0 9.6 3.8 3.7 3.8 3.7 11.3v23.9q0 7.6-3.7 11.4-3.6 3.6-9.6 3.6zm8-15.2v-23.7q0-9.3-8-9.3h-6.5q-8.5 0-8.5 8.7v24.8q0 8.7 8.5 8.7h6.5q8 0 8-9.2zm23.7 14.5h-3.6q-0.2 0-0.3-0.4-0.2-0.3-0.2-2v-12.1q0-1.6 0.2-2 0.1-0.4 0.3-0.4h3.6q0.2 0 0.4 0.4 0.4 0.7 0.4 2v12.1q0 0.9-0.2 1.3 0 0.4-0.2 0.7-0.2 0.4-0.4 0.4z"/>
	</g>
</svg>